<?xml version="1.0" encoding="UTF-8" standalone="no"?>
<!DOCTYPE svg PUBLIC "-//W3C//DTD SVG 1.1//EN" "http://www.w3.org/Graphics/SVG/1.1/DTD/svg11.dtd">
<svg width="100%" height="100%" viewBox="0 0 2667 2667" version="1.1" xmlns="http://www.w3.org/2000/svg" xmlns:xlink="http://www.w3.org/1999/xlink" xml:space="preserve" xmlns:serif="http://www.serif.com/" style="fill-rule:evenodd;clip-rule:evenodd;stroke-linejoin:round;stroke-miterlimit:2;">
    <g transform="matrix(2.66667,0,0,2.66667,0,0)">
        <g transform="matrix(1.92656,0,0,1.92656,-406.446,-3101.78)">
            <g transform="matrix(7.87689,0,0,7.87689,705.774,1951.15)">
                <path d="M0,-21.194C-4.411,-33.066 -12.695,-41.088 -25.651,-41.995C-37.512,-42.827 -49.475,-42.208 -61.394,-42.224C-61.434,-42.224 -61.668,-42.21 -61.841,-42.105C-61.9,-42.069 -61.906,-42.04 -61.876,-41.951C-60.76,-39.997 -59.62,-38.154 -58.638,-36.231C-57.962,-34.909 -57.1,-34.413 -55.566,-34.427C-46.952,-34.508 -38.336,-34.553 -29.724,-34.409C-27.269,-34.368 -24.706,-33.995 -22.396,-33.189C-13.135,-29.961 -6.881,-20.988 -6.363,-10.604C-5.847,-0.242 -11.292,9.226 -20.281,13.595C-20.872,13.883 -21.465,14.163 -22.185,14.508C-20.658,16.947 -19.249,19.201 -17.728,21.633C-15.986,20.681 -14.347,19.922 -12.846,18.949C0.068,10.579 5.57,-6.202 0,-21.194" style="fill:url(#_Linear1);fill-rule:nonzero;"/>
            </g>
            <g transform="matrix(7.87689,0,0,7.87689,265.549,2062.38)">
                <path d="M0,7.785L11.867,7.785C10.153,5.057 8.622,2.619 6.977,0C4.601,2.651 2.433,5.07 0,7.785" style="fill:url(#_Linear2);fill-rule:nonzero;"/>
            </g>
            <g transform="matrix(7.87689,0,0,7.87689,450.033,2063.28)">
                <path d="M0,-32.376L0.028,-32.376C3.86,-32.184 7.053,-29.775 8.317,-26.507C8.583,-25.82 8.763,-25.095 8.843,-24.341C8.894,-23.617 8.849,-22.893 8.796,-22.168C8.262,-18.609 5.514,-15.73 1.917,-14.822C1.892,-14.816 1.867,-14.807 1.84,-14.8C-1.028,-14.3 -4.291,-14.335 -6.547,-14.287C-9.474,-14.222 -12.404,-14.269 -15.333,-14.264C-15.507,-14.264 -15.685,-14.268 -15.855,-14.24C-16.396,-14.15 -16.71,-13.703 -16.586,-13.167C-16.534,-12.939 -16.423,-12.716 -16.299,-12.518C-13.649,-8.293 -10.549,-3.472 -7.61,1.137C-6.446,2.983 -5.296,4.836 -4.127,6.678C-4.05,6.801 -3.957,6.936 -3.854,7.067C-3.782,7.182 -3.705,7.303 -3.634,7.416C-3.472,7.673 -3.29,7.775 -3.02,7.795C-2.949,7.823 -2.88,7.844 -2.812,7.846C-0.226,7.959 2.368,7.901 5.369,7.901C5.347,7.866 5.327,7.832 5.307,7.797L5.434,7.797C4.049,5.509 2.426,2.909 0.812,0.321C-0.735,-2.158 -2.274,-4.626 -3.587,-6.793C-2.966,-6.849 -2.396,-6.861 -1.878,-6.919C-1.199,-6.953 -0.619,-6.99 0,-7.027C0.67,-7.046 1.331,-7.104 1.98,-7.193C6.305,-7.668 9.109,-8.852 11.912,-11.617C14.832,-14.498 16.44,-18.095 16.711,-21.771C16.769,-22.318 16.799,-22.875 16.799,-23.437C16.799,-23.863 16.776,-24.285 16.743,-24.703C16.155,-31.999 10.545,-37.956 3.185,-39.473C2.154,-39.686 -1.583,-39.976 -2.472,-40.041C-4.512,-40.146 -9.222,-40.271 -10.908,-40.294C-13.803,-40.335 -15.153,-40.32 -18.05,-40.318C-18.528,-40.317 -20.535,-40.326 -21.376,-40.251C-19.964,-37.917 -18.695,-35.921 -17.537,-33.862C-16.976,-32.863 -16.278,-32.503 -15.137,-32.529C-12.113,-32.598 -6.061,-32.543 -6.061,-32.543L0,-32.376Z" style="fill:url(#_Linear3);fill-rule:nonzero;"/>
            </g>
        </g>
    </g>
    <defs>
        <linearGradient id="_Linear1" x1="0" y1="0" x2="1" y2="0" gradientUnits="userSpaceOnUse" gradientTransform="matrix(61.8452,22.1468,-22.1468,61.8452,-60.4917,-18.1681)"><stop offset="0" style="stop-color:rgb(49,83,180);stop-opacity:1"/><stop offset="1" style="stop-color:rgb(129,17,206);stop-opacity:1"/></linearGradient>
        <linearGradient id="_Linear2" x1="0" y1="0" x2="1" y2="0" gradientUnits="userSpaceOnUse" gradientTransform="matrix(61.8452,22.1468,-22.1468,61.8452,-4.60347,-32.2892)"><stop offset="0" style="stop-color:rgb(49,83,180);stop-opacity:1"/><stop offset="1" style="stop-color:rgb(129,17,206);stop-opacity:1"/></linearGradient>
        <linearGradient id="_Linear3" x1="0" y1="0" x2="1" y2="0" gradientUnits="userSpaceOnUse" gradientTransform="matrix(61.8452,22.1468,-22.1468,61.8452,-28.0244,-32.4038)"><stop offset="0" style="stop-color:rgb(49,83,180);stop-opacity:1"/><stop offset="1" style="stop-color:rgb(129,17,206);stop-opacity:1"/></linearGradient>
    </defs>
</svg>
